<svg width="286" height="43" viewBox="0 0 286 43" fill="none" xmlns="http://www.w3.org/2000/svg">
<g clip-path="url(#clip0_715_1185)">
<path fill-rule="evenodd" clip-rule="evenodd" d="M17.7523 36.0909H25.5699L49.9999 2H42.0193L33.6317 13.6883L31.2701 10.4416H23.6154L29.9673 19.1266L17.7523 36.0909ZM0 41.2857H7.65473L22.1499 22.1299L23.9414 24.4026L27.8501 19.0454L21.6613 10.4415L0 41.2857ZM39.9024 36.0909H32.2477L29.9676 32.763L33.795 27.487L39.9024 36.0909ZM42.0194 36.091H49.0226L38.2734 21.3181L34.8533 26.026L42.0194 36.091Z" fill="url(#paint0_linear_715_1185)"/>
<mask id="mask0_715_1185" style="mask-type:luminance" maskUnits="userSpaceOnUse" x="0" y="2" width="50" height="40">
<path fill-rule="evenodd" clip-rule="evenodd" d="M17.7523 36.0909H25.5699L49.9999 2H42.0193L33.6317 13.6883L31.2701 10.4416H23.6154L29.9673 19.1266L17.7523 36.0909ZM0 41.2857H7.65473L22.1499 22.1299L23.9414 24.4026L27.8501 19.0454L21.6613 10.4415L0 41.2857ZM39.9024 36.0909H32.2477L29.9676 32.763L33.795 27.487L39.9024 36.0909ZM42.0194 36.091H49.0226L38.2734 21.3181L34.8533 26.026L42.0194 36.091Z" fill="white"/>
</mask>
<g mask="url(#mask0_715_1185)">
<path d="M25.5698 36.0908V36.6623H25.8632L26.0342 36.4237L25.5698 36.0908ZM17.7522 36.0908L17.2885 35.757L16.6365 36.6623H17.7522V36.0908ZM49.9998 1.99999L50.4642 2.33284L51.1123 1.42856H49.9998V1.99999ZM42.0192 1.99999V1.42856H41.726L41.555 1.66683L42.0192 1.99999ZM33.6317 13.6883L33.1695 14.0244L33.6348 14.6641L34.096 14.0215L33.6317 13.6883ZM31.2701 10.4415L31.7322 10.1054L31.5611 9.87012H31.2701V10.4415ZM23.6154 10.4415V9.87012H22.4895L23.1541 10.7789L23.6154 10.4415ZM29.9672 19.1266L30.431 19.4606L30.6732 19.124L30.4284 18.7893L29.9672 19.1266ZM7.65469 41.2857V41.8571H7.93887L8.11036 41.6304L7.65469 41.2857ZM-4.07696e-05 41.2857L-0.467672 40.9573L-1.09961 41.8571H-4.07696e-05V41.2857ZM22.1498 22.1298L22.5985 21.7761L22.1405 21.195L21.6941 21.785L22.1498 22.1298ZM23.9414 24.4026L23.4925 24.7563L23.959 25.348L24.403 24.7394L23.9414 24.4026ZM27.8501 19.0454L28.3117 19.3823L28.5558 19.0478L28.314 18.7117L27.8501 19.0454ZM21.6612 10.4415L22.1251 10.1078L21.6557 9.45519L21.1935 10.1131L21.6612 10.4415ZM32.2477 36.0908L31.7764 36.4138L31.9465 36.6623H32.2477V36.0908ZM39.9024 36.0908V36.6623H41.0088L40.3684 35.7601L39.9024 36.0908ZM29.9675 32.763L29.5051 32.4274L29.2685 32.7536L29.4962 33.086L29.9675 32.763ZM33.795 27.487L34.261 27.1563L33.8 26.5068L33.3324 27.1514L33.795 27.487ZM49.0225 36.091V36.6624H50.1451L49.4847 35.7547L49.0225 36.091ZM42.0194 36.091L41.5538 36.4224L41.7247 36.6624H42.0194V36.091ZM38.2734 21.3181L38.7354 20.982L38.273 20.3464L37.8111 20.9823L38.2734 21.3181ZM34.8532 26.026L34.391 25.6901L34.1494 26.0226L34.3877 26.3574L34.8532 26.026ZM25.5698 35.5194H17.7522V36.6623H25.5698V35.5194ZM49.5353 1.66714L25.1052 35.758L26.0342 36.4237L50.4642 2.33284L49.5353 1.66714ZM42.0192 2.57142H49.9998V1.42856H42.0192V2.57142ZM34.096 14.0215L42.4835 2.33314L41.555 1.66683L33.1674 13.3551L34.096 14.0215ZM30.808 10.7777L33.1695 14.0244L34.0938 13.3522L31.7322 10.1054L30.808 10.7777ZM23.6154 11.013H31.2701V9.87012H23.6154V11.013ZM30.4284 18.7893L24.0767 10.1042L23.1541 10.7789L29.506 19.464L30.4284 18.7893ZM18.216 36.4248L30.431 19.4606L29.5034 18.7927L17.2885 35.757L18.216 36.4248ZM7.65469 40.7143H-4.07696e-05V41.8571H7.65469V40.7143ZM21.6941 21.785L7.199 40.9408L8.11036 41.6304L22.6055 22.4747L21.6941 21.785ZM24.3901 24.0488L22.5985 21.7761L21.701 22.4836L23.4925 24.7563L24.3901 24.0488ZM27.3885 18.7086L23.4797 24.0657L24.403 24.7394L28.3117 19.3823L27.3885 18.7086ZM21.1972 10.7752L27.3862 19.3791L28.314 18.7117L22.1251 10.1078L21.1972 10.7752ZM0.467591 41.6141L22.1288 10.7699L21.1935 10.1131L-0.467672 40.9573L0.467591 41.6141ZM32.2477 36.6623H39.9024V35.5194H32.2477V36.6623ZM29.4962 33.086L31.7764 36.4138L32.7191 35.768L30.439 32.44L29.4962 33.086ZM33.3324 27.1514L29.5051 32.4274L30.4301 33.0986L34.2575 27.8226L33.3324 27.1514ZM40.3684 35.7601L34.261 27.1563L33.329 27.8177L39.4365 36.4217L40.3684 35.7601ZM49.0225 35.5196H42.0194V36.6624H49.0225V35.5196ZM37.8114 21.6544L48.5605 36.4271L49.4847 35.7547L38.7354 20.982L37.8114 21.6544ZM35.3155 26.3618L38.7357 21.6541L37.8111 20.9823L34.391 25.6901L35.3155 26.3618ZM42.4848 35.7596L35.3187 25.6946L34.3877 26.3574L41.5538 36.4224L42.4848 35.7596Z" fill="#640694"/>
</g>
</g>
<path d="M70.608 34L76.656 15.984H81.04L87.216 34H84.368L82.64 28.624H75.152L73.424 34H70.608ZM78.896 17.104L75.856 26.512H81.936L78.896 17.104ZM100.076 15.984H102.988L96.8443 34H92.3963L86.2523 15.984H89.1323L94.6042 32.816L100.076 15.984ZM113.033 31.696V34H105.513V31.696H107.977V18.288H105.513V15.984H113.033V18.288H110.601V31.696H113.033ZM117.236 34V15.984H119.892V31.696H129.332V34H117.236ZM130.764 34L136.812 15.984H141.196L147.372 34H144.524L142.796 28.624H135.308L133.58 34H130.764ZM139.052 17.104L136.012 26.512H142.092L139.052 17.104ZM156.611 34.384C155.31 34.384 154.062 34.1813 152.867 33.776C151.672 33.3493 150.691 32.688 149.923 31.792C149.176 30.8747 148.792 29.6907 148.771 28.24H151.459C151.459 28.3253 151.491 28.5707 151.555 28.976C151.64 29.36 151.843 29.7867 152.163 30.256C152.504 30.704 153.038 31.0987 153.763 31.44C154.488 31.7813 155.502 31.952 156.803 31.952C157.848 31.952 158.67 31.8027 159.267 31.504C159.886 31.2053 160.312 30.8533 160.547 30.448C160.803 30.0427 160.942 29.68 160.963 29.36C160.963 28.6987 160.75 28.1653 160.323 27.76C159.918 27.3547 159.363 27.0347 158.659 26.8C157.955 26.544 157.176 26.32 156.323 26.128C155.491 25.9147 154.659 25.6907 153.827 25.456C152.995 25.2 152.227 24.8693 151.523 24.464C150.84 24.0587 150.296 23.536 149.891 22.896C149.507 22.2347 149.347 21.392 149.411 20.368C149.475 18.896 150.168 17.744 151.491 16.912C152.835 16.08 154.563 15.664 156.675 15.664C157.912 15.664 159.064 15.888 160.131 16.336C161.198 16.784 162.051 17.456 162.691 18.352C163.331 19.248 163.651 20.368 163.651 21.712H161.059C161.059 20.9653 160.899 20.368 160.579 19.92C160.259 19.4507 159.854 19.088 159.363 18.832C158.872 18.576 158.36 18.4053 157.827 18.32C157.294 18.2133 156.814 18.16 156.387 18.16C155.171 18.16 154.168 18.384 153.379 18.832C152.611 19.28 152.227 19.888 152.227 20.656C152.206 21.3387 152.408 21.8827 152.835 22.288C153.262 22.6933 153.827 23.0133 154.531 23.248C155.235 23.4827 156.003 23.696 156.835 23.888C157.688 24.08 158.531 24.2933 159.363 24.528C160.216 24.7627 160.984 25.0827 161.667 25.488C162.371 25.872 162.915 26.4053 163.299 27.088C163.704 27.7493 163.886 28.592 163.843 29.616C163.779 30.6187 163.427 31.4827 162.787 32.208C162.168 32.912 161.326 33.456 160.259 33.84C159.192 34.2027 157.976 34.384 156.611 34.384ZM169.828 34H167.172V15.984H169.828V23.728H179.236V15.984H181.86V34H179.236V25.808H169.828V34ZM200.468 34.384C198.719 34.384 197.194 34.0213 195.892 33.296C194.612 32.5707 193.62 31.5253 192.916 30.16C192.212 28.7733 191.871 27.0773 191.892 25.072C191.914 23.0667 192.298 21.3707 193.044 19.984C193.812 18.576 194.868 17.5093 196.212 16.784C197.556 16.0373 199.124 15.664 200.916 15.664C203.263 15.664 205.119 16.1973 206.484 17.264C207.85 18.3093 208.746 19.8453 209.172 21.872L206.612 22.224C206.271 20.7733 205.578 19.7387 204.532 19.12C203.487 18.48 202.282 18.16 200.916 18.16C198.74 18.16 197.13 18.768 196.084 19.984C195.06 21.1787 194.527 22.8213 194.484 24.912C194.484 27.1093 195.06 28.816 196.212 30.032C197.386 31.2267 199.028 31.824 201.14 31.824C202.591 31.824 203.85 31.4613 204.916 30.736C205.983 29.9893 206.644 28.848 206.9 27.312H202.452V25.296H209.524V34H207.7L207.092 30.448H207.028C206.815 31.0027 206.442 31.5893 205.908 32.208C205.396 32.8053 204.682 33.3173 203.764 33.744C202.868 34.1707 201.77 34.384 200.468 34.384ZM215.547 34H212.891V15.984H215.547V23.728H224.955V15.984H227.579V34H224.955V25.808H215.547V34ZM239.098 34.448C236.218 34.448 234.02 33.6053 232.506 31.92C230.991 30.2133 230.234 27.92 230.234 25.04C230.234 23.1413 230.554 21.4987 231.194 20.112C231.855 18.704 232.836 17.616 234.138 16.848C235.46 16.0587 237.114 15.664 239.098 15.664C241.978 15.664 244.164 16.5173 245.658 18.224C247.172 19.9093 247.93 22.1813 247.93 25.04C247.93 26.896 247.588 28.5387 246.906 29.968C246.244 31.376 245.252 32.4747 243.93 33.264C242.628 34.0533 241.018 34.448 239.098 34.448ZM239.066 31.888C241.135 31.888 242.692 31.248 243.738 29.968C244.783 28.688 245.306 27.0453 245.306 25.04C245.306 23.0347 244.783 21.392 243.738 20.112C242.714 18.8107 241.156 18.16 239.066 18.16C237.018 18.16 235.46 18.7787 234.394 20.016C233.348 21.2533 232.826 22.928 232.826 25.04C232.826 26.3627 233.05 27.5467 233.498 28.592C233.946 29.616 234.628 30.4267 235.546 31.024C236.484 31.6 237.658 31.888 239.066 31.888ZM257.799 34.384C256.497 34.384 255.249 34.1813 254.055 33.776C252.86 33.3493 251.879 32.688 251.111 31.792C250.364 30.8747 249.98 29.6907 249.959 28.24H252.647C252.647 28.3253 252.679 28.5707 252.743 28.976C252.828 29.36 253.031 29.7867 253.351 30.256C253.692 30.704 254.225 31.0987 254.951 31.44C255.676 31.7813 256.689 31.952 257.991 31.952C259.036 31.952 259.857 31.8027 260.455 31.504C261.073 31.2053 261.5 30.8533 261.735 30.448C261.991 30.0427 262.129 29.68 262.151 29.36C262.151 28.6987 261.937 28.1653 261.511 27.76C261.105 27.3547 260.551 27.0347 259.847 26.8C259.143 26.544 258.364 26.32 257.51 26.128C256.679 25.9147 255.847 25.6907 255.015 25.456C254.183 25.2 253.415 24.8693 252.711 24.464C252.028 24.0587 251.484 23.536 251.079 22.896C250.695 22.2347 250.535 21.392 250.599 20.368C250.663 18.896 251.356 17.744 252.679 16.912C254.023 16.08 255.751 15.664 257.863 15.664C259.1 15.664 260.252 15.888 261.319 16.336C262.385 16.784 263.239 17.456 263.879 18.352C264.519 19.248 264.839 20.368 264.839 21.712H262.247C262.247 20.9653 262.087 20.368 261.767 19.92C261.447 19.4507 261.041 19.088 260.551 18.832C260.06 18.576 259.548 18.4053 259.015 18.32C258.481 18.2133 258.001 18.16 257.575 18.16C256.359 18.16 255.356 18.384 254.567 18.832C253.799 19.28 253.415 19.888 253.415 20.656C253.393 21.3387 253.596 21.8827 254.023 22.288C254.449 22.6933 255.015 23.0133 255.719 23.248C256.423 23.4827 257.191 23.696 258.023 23.888C258.876 24.08 259.719 24.2933 260.551 24.528C261.404 24.7627 262.172 25.0827 262.855 25.488C263.559 25.872 264.103 26.4053 264.487 27.088C264.892 27.7493 265.073 28.592 265.031 29.616C264.967 30.6187 264.615 31.4827 263.975 32.208C263.356 32.912 262.513 33.456 261.447 33.84C260.38 34.2027 259.164 34.384 257.799 34.384ZM271.016 34H268.36V15.984H271.016V23.728H280.424V15.984H283.048V34H280.424V25.808H271.016V34Z" fill="white"/>
<defs>
<linearGradient id="paint0_linear_715_1185" x1="45.8467" y1="2" x2="30.428" y2="34.4891" gradientUnits="userSpaceOnUse">
<stop offset="0.115" stop-color="#FFCA30"/>
<stop offset="0.425" stop-color="#FF6580"/>
<stop offset="0.74" stop-color="#FF01A2"/>
<stop offset="1" stop-color="#B94DDC"/>
</linearGradient>
<clipPath id="clip0_715_1185">
<rect width="50" height="39.2857" fill="white" transform="translate(0 2)"/>
</clipPath>
</defs>
</svg>
